<?xml version="1.0" standalone="no"?>
<!DOCTYPE svg PUBLIC "-//W3C//DTD SVG 1.0//EN" "http://www.w3.org/TR/2001/REC-SVG-20010904/DTD/svg10.dtd">
<svg xmlns="http://www.w3.org/2000/svg" xmlns:xlink="http://www.w3.org/1999/xlink" id="body_1" width="1024" height="768">

<g transform="matrix(1.4107274 0 0 1.4107274 90.178406 -0)">
    <path transform="matrix(1 0 0 1 -1159.26 -563.06)"  d="M1228 1024.59L1228 1047.82L1263.24 1047.82L1263.24 1072.23C 1252.41 1080.89 1242.96 1083.23 1232.14 1083.23C 1197.88 1083.23 1184.7001 1059.7999 1184.7001 1037.1699C 1184.7001 1008.81995 1202.6101 986.37994 1232.14 986.37994C 1244.14 986.37994 1257.92 991.2999 1267.14 1000.16L1267.14 1000.16L1283.28 983.62C 1269.6575 970.1362 1251.2671 962.5688 1232.1 962.56C 1183.47 962.56 1159.26 998.39 1159.26 1037.17C 1159.26 1073.39 1180.3201 1107.4401 1232.1 1107.4401C 1256.3099 1107.4401 1273.44 1098.1901 1287.02 1082.64L1287.02 1082.64L1287.02 1024.5701L1228 1024.59z" stroke="none" fill="#FFFFFF" fill-rule="nonzero" />
    <path transform="matrix(1 0 0 1 -1159.26 -563.06)"  d="M1352.17 1005.29C 1321.26 1005.29 1301.9701 1028.13 1301.9701 1055.89C 1301.9701 1083.84 1320.8701 1106.48 1352.3701 1106.48C 1383.8701 1106.48 1402.9601 1083.84 1402.9601 1055.89C 1403 1028.13 1383.08 1005.29 1352.17 1005.29zM1352.37 1084.4299C 1334.85 1084.4299 1325.99 1070.6499 1325.99 1055.8899C 1325.99 1041.32 1334.99 1027.1499 1352.37 1027.1499C 1368.51 1027.1499 1378.75 1041.32 1378.75 1055.8899C 1378.75 1070.65 1369.89 1084.43 1352.37 1084.43z" stroke="none" fill="#FFFFFF" fill-rule="nonzero" />
    <path transform="matrix(1 0 0 1 -1159.26 -563.06)"  d="M1419.49 966.71L1419.49 1104.31L1443.3099 1104.31L1443.3099 966.71L1419.49 966.71z" stroke="none" fill="#FFFFFF" fill-rule="nonzero" />
    <path transform="matrix(1 0 0 1 -1159.26 -563.06)"  d="M1522.25 1080.89C 1518.6405 1082.7157 1514.673 1083.7229 1510.63 1083.84C 1503.15 1083.84 1498.03 1079.3099 1498.03 1070.0599L1498.03 1070.0599L1498.03 1028.1299L1525.03 1028.1299L1525.03 1007.4599L1498.26 1007.4599L1498.26 979.9L1474.26 982.46L1474.26 1007.46L1456.1 1007.46L1456.1 1028.13L1474.21 1028.13L1474.21 1070.06C 1474.21 1094.27 1487.99 1106.28 1509.0599 1105.4901C 1515.8896 1105.3967 1522.6382 1103.9948 1528.94 1101.3601L1528.94 1101.3601L1522.25 1080.89z" stroke="none" fill="#FFFFFF" fill-rule="nonzero" />
    <path transform="matrix(1 0 0 1 -1159.26 -563.06)"  d="M1597.24 1005.89C 1586.24 1005.89 1575.59 1009.23004 1566.9299 1020.45L1566.9299 1020.45L1566.9299 966.51L1542.9299 966.51L1542.9299 1104.31L1566.9299 1104.31L1566.9299 1054.7101C 1566.9299 1040.1401 1576.7699 1028.1301 1590.9299 1028.1301C 1603.73 1028.1301 1612.9299 1035.6101 1612.9299 1053.3301L1612.9299 1053.3301L1612.9299 1104.3301L1636.9299 1104.3301L1636.9299 1053.15C 1637 1024.59 1624.8 1005.89 1597.24 1005.89z" stroke="none" fill="#FFFFFF" fill-rule="nonzero" />
    <path transform="matrix(1 0 0 1 -1159.26 -563.06)"  d="M1734.25 1007.26L1733.46 1020.65C 1727.95 1011 1715.5499 1004.9 1702.5499 1004.9C 1674.21 1004.7 1651.96 1022.22003 1651.96 1055.6901C 1651.96 1089.7501 1673.22 1107.4601 1701.96 1107.27C 1712.7899 1107.0701 1727.96 1101.56 1733.46 1090.14L1733.46 1090.14L1734.64 1104.31L1757.28 1104.31L1757.28 1007.31006L1734.25 1007.26zM1704.72 1085.26C 1688.72 1085.26 1675.98 1074.26 1675.98 1055.73C 1675.98 1037.2 1688.77 1026.4 1704.72 1026.4C 1742.51 1026.36 1742.51 1085.22 1704.72 1085.22z" stroke="none" fill="#FFFFFF" fill-rule="nonzero" />
    <path transform="matrix(1 0 0 1 -1159.26 -563.06)"  d="M1457.07 734.71C 1457.07 750.30005 1457 766.13 1456.97 782.05005C 1456.97 783.6401 1456.97 785.23004 1456.97 786.8301C 1456.97 789.49005 1456.97 792.1601 1456.97 794.8301C 1456.97 815.8301 1456.89 836.9201 1456.85 857.7801C 1456.85 862.73346 1456.85 867.67017 1456.85 872.5901C 1456.85 879.87683 1456.85 887.1201 1456.85 894.32007L1456.85 894.32007L1300.2 894.32007C 1295.58 882.94006 1297 870.7201 1304.09 862.88007C 1307.584 859.1346 1312.1064 856.5045 1317.09 855.32007C 1316.2479 850.40985 1316.8813 845.36017 1318.9099 840.81006C 1323.5399 830.5801 1333.59 827.3901 1335.2299 826.9001C 1334.1957 817.70703 1336.3109 808.4351 1341.2299 800.6001C 1344.2234 795.9624 1348.1627 792.0094 1352.79 789C 1357.3801 785.9886 1362.5011 783.8778 1367.88 782.78C 1367.08 769.63 1373.43 757.36005 1384.21 751.35004C 1385.496 750.63586 1386.8329 750.0175 1388.21 749.50006C 1388.87 749.25006 1389.5299 749.0301 1390.21 748.8301C 1393.1937 747.9508 1396.2894 747.5095 1399.3999 747.5201L1399.3999 747.5201L1400.3999 747.5201L1401.3999 747.5201L1402.3398 747.5901C 1402.9498 747.5901 1403.5498 747.7101 1404.1099 747.7801L1404.1099 747.7801L1404.9398 747.9001L1405.7198 748.0401C 1406.5999 748.2001 1407.3799 748.3701 1408.0498 748.5301L1408.0498 748.5301L1408.8499 748.7401L1409.4498 748.9201C 1409.7998 749.0201 1410.0698 749.1101 1410.2599 749.1801C 1410.5199 748.27014 1415.07 733.3601 1430.3699 728.9901C 1432.8662 728.26886 1435.4515 727.9019 1438.0499 727.9001C 1439.6451 727.90515 1441.2373 728.04224 1442.8099 728.31006C 1443.4099 728.41003 1443.9999 728.53 1444.57 728.66003C 1445.14 728.79004 1445.7 728.94006 1446.24 729.10004C 1446.78 729.26 1447.3099 729.42004 1447.82 729.60004C 1448.58 729.87006 1449.2999 730.16003 1449.98 730.45C 1450.44 730.64 1450.88 730.84 1451.29 731.05C 1451.7001 731.25995 1452.11 731.45 1452.48 731.64996L1452.48 731.64996L1453.04 731.94995C 1453.39 732.14996 1453.73 732.33997 1454.04 732.54L1454.04 732.54L1454.92 733.07996C 1455.4601 733.42993 1455.92 733.74994 1456.27 734.00995C 1456.62 734.26996 1456.88 734.47 1457.02 734.58997L1457.02 734.58997L1457.07 734.71z" stroke="none" fill="#FFACB7" fill-rule="nonzero" />
    <path transform="matrix(1 0 0 1 -1159.26 -563.06)"  d="M1624.61 894.33L1468.04 894.59C 1468.04 891.32 1468.04 888.05005 1468.04 884.75C 1468.04 881.44995 1468.04 878.16 1468.04 874.85C 1468.04 873.38995 1468.04 871.93 1468.04 870.47C 1468.04 868.62 1468.04 866.75995 1468.04 864.89996C 1468.04 862.07996 1468.04 859.26996 1468.04 856.43994L1468.04 856.43994L1468.04 854.9C 1468.04 851.95337 1468.04 848.9934 1468.04 846.02L1468.04 846.02L1468.04 832.02C 1468.04 829.68 1468.04 827.33 1468.04 825.02L1468.04 825.02L1468.04 824.26C 1468.04 822.17 1468.04 820.07 1468.04 817.98C 1468.04 810.94006 1468.0234 803.9034 1467.99 796.87L1467.99 796.87L1467.99 794.93C 1467.99 792.25 1467.99 789.58997 1467.99 786.93C 1467.99 785.57 1467.99 784.2 1467.99 782.83997C 1467.99 779.2533 1467.99 775.6666 1467.99 772.07996C 1467.99 769.83997 1467.99 767.61993 1467.99 765.38995C 1467.99 761.49994 1467.99 757.6 1467.99 753.73C 1467.99 750.73 1467.99 747.66 1467.99 744.63C 1467.99 741.3434 1467.99 738.06335 1467.99 734.79L1467.99 734.79L1468.08 734.70996C 1468.23 734.58997 1468.48 734.38995 1468.84 734.12994L1468.84 734.12994L1469.44 733.69995C 1469.6699 733.5499 1469.9099 733.36993 1470.19 733.19995C 1470.47 733.02997 1470.75 732.85 1471.07 732.66C 1471.3899 732.47 1471.72 732.26996 1472.07 732.06995L1472.07 732.06995L1472.61 731.76996L1473.8099 731.17C 1474.23 730.95996 1474.6599 730.76996 1475.12 730.57L1475.12 730.57L1475.64 730.35004L1476.18 730.14L1477.29 729.72003C 1477.8 729.54004 1478.29 729.38 1478.86 729.22003C 1479.4299 729.06006 1479.96 728.91003 1480.53 728.78C 1481.1001 728.65 1481.6901 728.53 1482.3 728.43005L1482.3 728.43005L1483.2101 728.29004C 1483.4702 728.25006 1483.7302 728.22003 1483.9901 728.2L1483.9901 728.2L1484.2401 728.2L1485.0901 728.12L1486.0901 728.12L1487.0901 728.12C 1489.6918 728.12177 1492.2804 728.4887 1494.78 729.21C 1510.0701 733.58 1514.62 748.49005 1514.88 749.4C 1515.06 749.33 1515.32 749.25 1515.64 749.15L1515.64 749.15L1516.3 748.96L1516.81 748.83L1517.0901 748.75C 1517.78 748.58 1518.6001 748.4 1519.5201 748.25L1519.5201 748.25L1520.2101 748.12L1521.03 748C 1521.6 747.93 1522.1901 747.86 1522.81 747.81L1522.81 747.81L1523.75 747.74L1524.75 747.74L1525.75 747.74C 1526.14 747.74 1526.54 747.74 1526.95 747.74L1526.95 747.74L1527.73 747.74L1527.98 747.74L1528.0599 747.74L1528.5099 747.74L1528.5999 747.74L1529.1499 747.74C 1529.4799 747.74 1529.7999 747.81 1530.1499 747.86L1530.1499 747.86L1530.8999 747.97L1531.07 747.97L1531.88 748.11L1532 748.11L1533 748.31L1533.72 748.49L1534.0499 748.57L1534.9299 748.82C 1535.58 749.02 1536.24 749.24 1536.9299 749.49C 1538.3076 750.0058 1539.6448 750.6242 1540.9299 751.33997C 1541.1799 751.47 1541.4299 751.62 1541.6799 751.76996L1541.6799 751.76996L1542.09 752.01996C 1542.5299 752.29 1542.97 752.56995 1543.38 752.86993C 1543.54 752.9699 1543.68 753.06995 1543.83 753.17993C 1543.9799 753.2899 1544.26 753.4899 1544.47 753.6499C 1544.6799 753.8099 1544.74 753.8599 1544.87 753.9699C 1544.9843 754.051 1545.0944 754.1378 1545.2 754.2299L1545.2 754.2299L1545.7 754.6399L1546.2999 755.1599C 1546.5199 755.3599 1546.7399 755.5499 1546.95 755.7599L1546.95 755.7599L1547.11 755.8999L1547.78 756.5599L1548.49 757.3099L1548.57 757.3999C 1548.75 757.5899 1548.9199 757.7899 1549.09 757.9799L1549.09 757.9799L1549.5399 758.5199L1549.7999 758.8299L1550.3799 759.5699C 1550.5898 759.8399 1550.7999 760.1199 1550.9899 760.3999C 1551.1798 760.67993 1551.3398 760.8899 1551.5099 761.1399L1551.5099 761.1399L1551.5798 761.2499C 1551.5829 761.2765 1551.5829 761.30334 1551.5798 761.3299L1551.5798 761.3299L1551.8899 761.79987C 1552.2 762.28986 1552.4999 762.79987 1552.7799 763.28986C 1552.9199 763.52985 1553.0499 763.77985 1553.1799 764.01984L1553.1799 764.01984L1553.57 764.77985C 1553.7 765.02985 1553.82 765.28986 1553.94 765.54987C 1554.19 766.0799 1554.4199 766.60986 1554.6399 767.1399L1554.6399 767.1399L1554.7999 767.5299C 1554.7999 767.6699 1554.8999 767.80994 1554.96 767.9499C 1555.02 768.08984 1555.1599 768.4999 1555.25 768.7699C 1555.3401 769.0399 1555.45 769.3299 1555.53 769.5999C 1555.81 770.42993 1556.04 771.2799 1556.24 772.1399C 1556.3099 772.4199 1556.37 772.7199 1556.44 772.9999L1556.44 772.9999L1556.5299 773.4599C 1556.5299 773.6099 1556.5999 773.7699 1556.6199 773.9199C 1556.7399 774.5299 1556.8398 775.1499 1556.9199 775.75995C 1556.9199 775.9899 1556.98 776.22 1556.9999 776.43994C 1556.9999 776.43994 1556.9999 776.49994 1556.9999 776.52997C 1556.9999 776.56 1556.9999 776.87994 1557.0599 777.06995L1557.0599 777.06995L1557.12 777.80994C 1557.12 777.80994 1557.12 777.80994 1557.12 777.87994C 1557.12 778.08997 1557.12 778.2899 1557.12 778.49994L1557.12 778.49994L1557.12 779.36993C 1557.12 779.7299 1557.12 780.07996 1557.12 780.43994C 1557.12 781.19995 1557.12 781.95996 1557.05 782.72C 1559.7101 783.24 1574.55 786.36 1583.66 800.56C 1588.5693 808.3989 1590.6838 817.6675 1589.66 826.86C 1591.3 827.35 1601.35 830.54 1605.98 840.76996C 1608.0018 845.3221 1608.6317 850.37067 1607.79 855.27997C 1612.7736 856.46436 1617.296 859.0944 1620.79 862.83997C 1627.8 870.73 1629.22 883 1624.61 894.33z" stroke="none" fill="#FFACB7" fill-rule="nonzero" />
    <path transform="matrix(1 0 0 1 -1159.26 -563.06)"  d="M1583.63 728.73C 1573.5 723.3 1555.82 710.5 1527.11 687.16C 1520.997 671.0068 1518.5778 653.68994 1520.03 636.48C 1520.7087 628.7817 1522.1833 621.17444 1524.43 613.77997C 1530.4901 614.99994 1570.9501 622.41 1597.3 596.77997C 1602.5159 591.65466 1606.8118 585.6709 1610 579.08997C 1600.537 582.3744 1590.5193 583.76086 1580.52 583.17C 1566.4401 582.33997 1557.66 577.66 1548.77 574.1C 1539.53 570.41 1505.51 556.8 1474.4501 566.38995C 1452.9901 573.01996 1439.3501 588.7399 1431.5901 597.67993C 1422.5901 608.0399 1417.92 617.1099 1411.4801 629.7899C 1401.796 648.91705 1394.1538 669.0114 1388.68 689.7399C 1365.2401 713.24994 1350.62 723.7399 1341.13 728.7399C 1339.1901 729.7399 1332.86 732.99994 1329.06 739.8499C 1328.78 740.3399 1323.25 750.7099 1327.4701 760.0299C 1328.8601 763.0299 1330.17 763.5699 1336.7601 770.6399C 1340.8202 774.9999 1343.9701 778.7299 1346.0402 781.2499C 1348.0629 779.83 1350.1888 778.5632 1352.4001 777.4599C 1354.217 776.5312 1356.0869 775.7098 1358 775C 1358.6382 769.6394 1360.2335 764.43695 1362.71 759.64C 1366.4259 752.3914 1372.1918 746.39594 1379.2899 742.4C 1385.4304 738.9934 1392.3479 737.23303 1399.3699 737.29004C 1401.0405 737.28766 1402.71 737.38116 1404.3699 737.57007C 1409.3983 728.65204 1417.7191 722.0579 1427.5499 719.2001C 1430.9587 718.22925 1434.4856 717.73456 1438.0299 717.7301C 1446.8259 717.8501 1455.3643 720.71716 1462.45 725.9301C 1469.5245 720.7103 1478.0587 717.8422 1486.85 717.7301C 1490.3976 717.73456 1493.9277 718.22925 1497.34 719.2001C 1501.5784 720.38995 1505.5732 722.31964 1509.14 724.9001C 1509.48 725.1401 1509.8 725.3901 1510.14 725.63007C 1510.48 725.87006 1510.77 726.12006 1511.08 726.38007L1511.08 726.38007L1511.99 727.1401L1512.85 727.9201C 1513.41 728.4401 1513.94 728.9201 1514.47 729.51013C 1515 730.10016 1515.47 730.5701 1515.9299 731.1101C 1516.6199 731.9301 1517.2799 732.7501 1517.8699 733.5501C 1518.8062 734.8197 1519.674 736.13824 1520.4698 737.5001C 1520.4661 737.5166 1520.4661 737.5337 1520.4698 737.5501C 1522.1298 737.36127 1523.7992 737.2678 1525.4698 737.2701C 1531.1227 737.23816 1536.7218 738.3682 1541.9198 740.5901C 1543.1406 741.1121 1544.3324 741.6997 1545.4897 742.3501C 1546.0098 742.6401 1546.4897 742.9401 1547.0098 743.2601C 1547.5298 743.58 1547.7598 743.7101 1548.1198 743.9501C 1551.8823 746.44415 1555.207 749.54254 1557.9597 753.12006C 1559.5208 755.14923 1560.8962 757.31464 1562.0697 759.59C 1564.5483 764.38605 1566.1437 769.5889 1566.7797 774.95C 1568.6747 775.6533 1570.5277 776.4646 1572.3297 777.38C 1574.5425 778.4904 1576.6714 779.76044 1578.6997 781.18C 1580.7598 778.67 1583.9197 774.94 1587.9897 770.57C 1594.5697 763.51 1595.8898 763 1597.2598 759.95C 1597.9287 758.4714 1598.3865 756.90607 1598.6198 755.3C 1599.7898 747.47 1595.9098 740.2 1595.6798 739.77997C 1591.91 733 1585.59 729.78 1583.63 728.73z" stroke="none" fill="#816BC1" fill-rule="nonzero" />
    <path transform="matrix(1 0 0 1 -1159.26 -563.06)"  d="M1480.17 690.66C 1494.1533 690.368 1508.1365 691.2578 1521.9701 693.31995L1521.9701 693.31995L1522.5302 693.39996L1523.0602 693.81995L1544.9802 710.81995C 1552.2803 716.4899 1559.6102 722.12994 1567.0902 727.50995C 1570.8302 730.1699 1574.5802 732.89996 1578.4302 735.14996C 1579.4302 735.72 1580.2802 736.14996 1581.4302 736.76996C 1582.5494 737.3924 1583.6075 738.1189 1584.5902 738.93994C 1585.5819 739.76337 1586.4775 740.6959 1587.2603 741.72C 1587.6531 742.23944 1588.017 742.7803 1588.3502 743.33997C 1588.6603 743.86 1588.9702 744.43 1589.2402 744.99994C 1590.4249 747.3396 1590.9667 749.9521 1590.8102 752.56995C 1590.702 753.95544 1590.2997 755.302 1589.6301 756.51996C 1588.9105 757.60895 1588.0383 758.5889 1587.0402 759.42993C 1583.5402 762.4899 1580.6702 765.8999 1576.5302 768.49994C 1577.3931 766.2747 1578.6272 764.2121 1580.1802 762.39996C 1581.6902 760.6 1583.4202 758.95996 1585.0502 757.33997C 1585.8247 756.67035 1586.4984 755.89233 1587.0502 755.02997C 1587.4492 754.18634 1587.677 753.27203 1587.7202 752.33997C 1587.7441 750.3026 1587.2302 748.29504 1586.2302 746.51996C 1585.9883 746.0493 1585.7213 745.5919 1585.4302 745.14996C 1584.5946 743.8594 1583.5425 742.72266 1582.3202 741.79C 1581.494 741.1525 1580.6102 740.59344 1579.6802 740.12C 1578.8202 739.7 1577.5902 739.17 1576.5302 738.58997C 1572.4058 736.3057 1568.4005 733.8124 1564.5302 731.12C 1556.8501 725.83997 1549.3701 720.33997 1541.9202 714.79C 1538.2002 712.00995 1534.5302 709.17 1530.8502 706.35C 1527.1703 703.52997 1523.5203 700.66 1519.8502 697.77997L1519.8502 697.77997L1520.9502 698.27997C 1507.5115 695.1609 1493.8324 693.18713 1480.0602 692.37994C 1479.5742 692.37994 1479.1802 691.98596 1479.1802 691.49994C 1479.1802 691.0139 1479.5742 690.61993 1480.0602 690.61993L1480.0602 690.61993L1480.17 690.66z" stroke="none" fill="#FFFFFF" fill-rule="nonzero" />
    <path transform="matrix(1 0 0 1 -1159.26 -563.06)"  d="M1457 786.83C 1457 789.49 1457 792.16003 1457 794.83C 1456.34 794.83 1455.66 794.83 1454.94 794.83C 1441.94 794.83 1420.1299 789.5 1417.09 768.53C 1416.8864 767.11523 1417.453 765.6993 1418.5764 764.81555C 1419.6998 763.9318 1421.2094 763.71454 1422.5364 764.24554C 1423.8635 764.77655 1424.8064 765.9752 1425.01 767.39C 1428.01 788.04004 1455.73 786.84 1456.91 786.78L1456.91 786.78L1457 786.83z" stroke="none" fill="#FFFFFF" fill-rule="nonzero" />
    <path transform="matrix(1 0 0 1 -1159.26 -563.06)"  d="M1410.73 813.36C 1410.5934 813.36993 1410.4564 813.36993 1410.32 813.36C 1409.2644 813.25385 1408.2942 812.7328 1407.6229 811.9114C 1406.9515 811.08997 1406.6339 810.0355 1406.74 808.98C 1406.74 808.63 1407.54 800.37 1401.04 794.98C 1394.92 789.92 1387.6001 791.63995 1386.78 791.85C 1385.3763 792.2703 1383.8551 791.88934 1382.8151 790.85706C 1381.7749 789.82477 1381.3826 788.30646 1381.7924 786.89954C 1382.2021 785.4926 1383.3484 784.4224 1384.78 784.11C 1386 783.79 1396.98 781.22 1406.16 788.82C 1415.74 796.74 1414.85 808.46 1414.7201 809.77C 1414.5095 811.81384 1412.7847 813.3657 1410.73 813.36z" stroke="none" fill="#FFFFFF" fill-rule="nonzero" />
    <path transform="matrix(1 0 0 1 -1159.26 -563.06)"  d="M1377.55 868.17C 1377.1252 868.17126 1376.7031 868.10376 1376.3 867.97C 1367.813 865.199 1362.2627 857.0523 1362.79 848.13995C 1362.8705 846.71094 1363.7072 845.4333 1364.9849 844.7884C 1366.2627 844.1435 1367.7875 844.22925 1368.9849 845.01337C 1370.1823 845.79755 1370.8705 847.16095 1370.79 848.58997C 1370.6483 851.27844 1371.4202 853.9357 1372.98 856.12994C 1374.4315 858.1187 1376.4707 859.60175 1378.8099 860.36993C 1380.6769 860.9836 1381.8215 862.8625 1381.5105 864.80286C 1381.1996 866.7433 1379.5251 868.1704 1377.5599 868.1699L1377.5599 868.1699L1377.55 868.17z" stroke="none" fill="#FFFFFF" fill-rule="nonzero" />
    <path transform="matrix(1 0 0 1 -1159.26 -563.06)"  d="M1456.83 857.78C 1456.83 862.7334 1456.83 867.67004 1456.83 872.59C 1451.76 862.46 1445.2699 855.83 1437.5299 852.87006C 1432.0499 850.7601 1427.2799 851.04004 1422.2399 851.3301C 1416.5698 851.6501 1410.6898 851.99005 1403.7098 849.1501C 1393.4799 844.9801 1385.3098 835.4901 1379.4198 820.9301C 1378.819 819.59375 1378.9968 818.03595 1379.8834 816.8695C 1380.77 815.70306 1382.2234 815.1147 1383.6718 815.3358C 1385.1201 815.55695 1386.3317 816.55225 1386.8298 817.9301C 1391.8298 830.4101 1398.5798 838.4201 1406.7299 841.7401C 1412.0299 843.9001 1416.5498 843.64014 1421.7299 843.3401C 1427.1399 843.0301 1433.2599 842.6801 1440.3499 845.4001C 1446.8508 847.9798 1452.5416 852.25476 1456.83 857.78z" stroke="none" fill="#FFFFFF" fill-rule="nonzero" />
    <path transform="matrix(1 0 0 1 -1159.26 -563.06)"  d="M1506.63 768.58C 1503.63 789.58 1481.78 794.88 1468.78 794.88C 1468.4601 794.88 1468.15 794.88 1467.85 794.88C 1467.85 792.2 1467.85 789.54 1467.85 786.88L1467.85 786.88L1468.33 786.88C 1474.33 786.88 1496.09 785.62 1498.72 767.46C 1498.9236 766.0452 1499.8665 764.84656 1501.1936 764.31555C 1502.5206 763.78455 1504.0302 764.00183 1505.1536 764.88556C 1506.277 765.7693 1506.8436 767.18524 1506.64 768.60004L1506.64 768.60004L1506.63 768.58z" stroke="none" fill="#FFFFFF" fill-rule="nonzero" />
    <path transform="matrix(1 0 0 1 -1159.26 -563.06)"  d="M1513 813.36C 1510.9415 813.3708 1509.2109 811.81757 1509 809.76996C 1508.87 808.45996 1508 796.76996 1517.56 788.81995C 1526.7401 781.22 1537.7201 783.81995 1538.9401 784.1099C 1540.3717 784.42236 1541.518 785.49255 1541.9277 786.8995C 1542.3375 788.3064 1541.9452 789.8247 1540.905 790.857C 1539.865 791.8893 1538.3438 792.27026 1536.9401 791.8499C 1536.13 791.6399 1528.8 789.9199 1522.68 794.9799C 1516.1901 800.3499 1516.9401 808.6099 1516.9801 808.9799C 1517.0863 810.03546 1516.7687 811.0899 1516.0973 811.9113C 1515.426 812.7327 1514.4558 813.2538 1513.4001 813.3599C 1513.267 813.36993 1513.1332 813.36993 1513 813.36z" stroke="none" fill="#FFFFFF" fill-rule="nonzero" />
    <path transform="matrix(1 0 0 1 -1159.26 -563.06)"  d="M1546.12 868.17C 1544.1548 868.17053 1542.4803 866.7434 1542.1694 864.803C 1541.8584 862.8626 1543.003 860.9837 1544.87 860.37C 1547.2114 859.60065 1549.2535 858.1181 1550.71 856.13C 1552.2648 853.9333 1553.0361 851.2778 1552.8999 848.59C 1552.7756 846.38086 1554.4657 844.48926 1556.6749 844.365C 1558.884 844.2407 1560.7756 845.93085 1560.8999 848.14C 1561.4423 857.0696 1555.8785 865.2364 1547.37 868C 1546.9653 868.12427 1546.5431 868.18164 1546.12 868.17z" stroke="none" fill="#FFFFFF" fill-rule="nonzero" />
    <path transform="matrix(1 0 0 1 -1159.26 -563.06)"  d="M1544.29 820.93C 1538.39 835.49 1530.2201 844.98 1519.99 849.14996C 1512.99 851.99 1507.14 851.64996 1501.46 851.32996C 1496.46 851.04 1491.6599 850.75995 1486.1699 852.86993C 1478.98 855.61993 1472.8799 861.5299 1467.9899 870.4699C 1467.9899 868.61993 1467.9899 866.7599 1467.9899 864.8999C 1467.9899 862.0799 1467.9899 859.2699 1467.9899 856.4399C 1472.1083 851.55396 1477.381 847.7731 1483.3298 845.4399C 1490.4198 842.7199 1496.5398 843.0699 1501.9398 843.3799C 1507.1698 843.6799 1511.6898 843.9399 1516.9398 841.7799C 1525.0898 838.4599 1531.7898 830.4499 1536.8398 817.9699C 1537.3757 816.6445 1538.578 815.70557 1539.9938 815.50696C 1541.4097 815.3083 1542.824 815.8801 1543.7039 817.00696C 1544.5837 818.1338 1544.7958 819.6445 1544.2599 820.9699L1544.2599 820.9699L1544.29 820.93z" stroke="none" fill="#FFFFFF" fill-rule="nonzero" />
    <path transform="matrix(1 0 0 1 -1159.26 -563.06)"  d="M1516.3 682.27L1513.8 676.42004C 1512.9801 674.42004 1512.18 672.48004 1511.4501 670.42004C 1510.6702 668.3652 1510.0288 666.2605 1509.53 664.12006C 1509.41 663.5201 1509.31 662.99005 1509.22 662.4601C 1509.1299 661.9301 1509.0599 661.3901 1508.99 660.8501C 1508.85 659.7801 1508.74 658.7001 1508.64 657.6201L1508.64 657.6201L1510.43 659.4101C 1508.0701 659.2301 1505.67 659.1201 1503.27 658.9801C 1500.87 658.8401 1498.47 658.6901 1496.0701 658.4801C 1493.6702 658.2701 1491.26 658.0801 1488.8601 657.8301C 1486.4602 657.5801 1484.05 657.2901 1481.6501 656.8301C 1481.4272 656.7891 1481.2303 656.6598 1481.1041 656.4715C 1480.978 656.28314 1480.9332 656.0519 1480.9801 655.8301C 1481.0427 655.43976 1481.3749 655.1496 1481.7701 655.1401C 1484.1802 655.0401 1486.5802 655.0101 1488.9901 654.9701C 1491.4 654.9301 1493.81 654.9701 1496.2201 654.9701C 1498.6301 654.9701 1501.04 655.07007 1503.4501 655.1201C 1505.8601 655.17017 1508.27 655.33014 1510.7101 655.4901L1510.7101 655.4901L1512.41 655.6001L1512.51 657.2801C 1512.51 658.2801 1512.64 659.3601 1512.73 660.3901L1512.73 660.3901L1512.87 661.9501C 1512.87 662.4801 1512.96 662.9501 1513.03 663.44006C 1513.3401 665.36005 1513.87 667.44006 1514.39 669.44006L1514.39 669.44006L1516.02 675.5801C 1516.55 677.6401 1517.09 679.7001 1517.46 681.8501C 1517.489 682.008 1517.4535 682.171 1517.3615 682.30255C 1517.2693 682.43414 1517.1283 682.52325 1516.97 682.5501C 1516.6932 682.59607 1516.4209 682.4476 1516.3099 682.1901L1516.3099 682.1901L1516.3 682.27z" stroke="none" fill="#FFFFFF" fill-rule="nonzero" />
    <path transform="matrix(1 0 0 1 -1159.26 -563.06)"  d="M1510.56 643.51L1517.3 604.08L1517.62 602.2L1519.62 602.76C 1522.8026 603.76855 1526.0414 604.58997 1529.32 605.22003C 1545.8259 608.5101 1562.9459 606.59894 1578.32 599.75006C 1584.4874 596.98267 1590.3075 593.49866 1595.6599 589.37006C 1595.7805 589.27826 1595.9326 589.2383 1596.0828 589.2589C 1596.2329 589.27954 1596.3687 589.35913 1596.46 589.48004C 1596.6387 589.71466 1596.6128 590.046 1596.3999 590.25006C 1593.8525 592.5787 1591.1569 594.73987 1588.33 596.72003C 1585.4745 598.67535 1582.4985 600.44885 1579.4199 602.03C 1573.2076 605.18396 1566.5979 607.4848 1559.7699 608.87006C 1546.004 611.6288 1531.7516 610.6692 1518.4799 606.09L1518.4799 606.09L1520.7499 604.77L1511.8099 643.77C 1511.717 644.08307 1511.4004 644.27325 1511.0804 644.2082C 1510.7605 644.1432 1510.5432 643.8445 1510.58 643.52L1510.58 643.52L1510.56 643.51z" stroke="none" fill="#FFFFFF" fill-rule="nonzero" />
</g>
</svg>